Coordinates
version=1
nRows=19
nColumns=24
inDegrees=yes

Units are S.I. units (second, meters, Newtons, ...)
Angles are in degrees.

endheader
time	pelvis_tilt	pelvis_list	pelvis_rotation	pelvis_tx	pelvis_ty	pelvis_tz	hip_flexion_r	hip_adduction_r	hip_rotation_r	knee_angle_r	ankle_angle_r	subtalar_angle_r	mtp_angle_r	hip_flexion_l	hip_adduction_l	hip_rotation_l	knee_angle_l	ankle_angle_l	subtalar_angle_l	mtp_angle_l	lumbar_extension	lumbar_bending	lumbar_rotation
      3.67500000	     -9.05746637	     -4.83870728	     12.41554872	     -1.33632140	     -0.05632333	      0.63923934	     38.61059405	     -3.19966388	    -23.98321883	    -15.61536766	     -1.71680969	      3.01183897	      0.19787951	     -8.86554455	     -5.04069929	      5.22371631	    -14.24948027	     15.82474848	     11.17716716	     11.22484931	      2.87008403	      2.95115397	    -16.43262253
      3.68000000	     -9.12958583	     -5.19017046	     12.52584023	     -1.32817848	     -0.05772018	      0.63915274	     38.69226685	     -2.93823850	    -24.14889954	    -16.19083318	     -2.43663806	      2.91965474	      0.20199964	     -8.85153765	     -5.53717621	      5.21401443	    -15.00191825	     15.56302132	     11.44153569	     11.68383494	      3.11459054	      3.34932820	    -16.58665444
      3.68500000	     -9.17418984	     -5.58166210	     12.50110602	     -1.31994613	     -0.05906300	      0.63926257	     38.78294565	     -2.55466888	    -24.20537348	    -16.80806460	     -3.35125540	      2.60260279	      0.42188431	     -8.84516556	     -6.09542189	      4.83262614	    -15.80262535	     15.25936998	     12.01068302	     12.47639245	      3.33754765	      3.80726177	    -16.58875221
      3.69000000	     -9.23880797	     -5.98233807	     12.53822147	     -1.31180477	     -0.06029065	      0.63928681	     38.90842395	     -2.22005382	    -24.22162122	    -17.48403887	     -4.32520400	      2.14052668	      0.49354813	     -8.73686886	     -6.65208448	      4.60825467	    -16.72403291	     14.85095220	     12.46865332	     13.12306912	      3.57990742	      4.26861171	    -16.68084588
      3.69500000	     -9.30830877	     -6.41616484	     12.48430956	     -1.30362047	     -0.06144980	      0.63940698	     39.08107769	     -1.81326420	    -24.13779046	    -18.23513709	     -5.33063033	      1.56053799	      0.48344136	     -8.59687111	     -7.23787079	      4.27556011	    -17.70587056	     14.34693809	     12.96600028	     13.90218538	      3.83307690	      4.77693036	    -16.67009872
      3.70000000	     -9.36565892	     -6.84113153	     12.35727168	     -1.29543352	     -0.06248308	      0.63960475	     39.27625742	     -1.37575525	    -23.93579592	    -19.06960524	     -6.28950910	      0.86730954	      0.38056741	     -8.43634773	     -7.81844159	      3.82677082	    -18.75859262	     13.67917795	     13.52607493	     14.91178427	      4.06353128	      5.29170330	    -16.51653051
      3.70500000	     -9.42998892	     -7.27827755	     12.24326713	     -1.28731539	     -0.06341199	      0.63977828	     39.50476857	     -0.93946945	    -23.63883009	    -19.98186478	     -7.11475082	      0.04615521	      0.12348329	     -8.17690465	     -8.40980563	      3.38953174	    -19.96201758	     12.89156411	     14.02802240	     15.90764891	      4.29561586	      5.82000342	    -16.43726249
      3.71000000	     -9.48610172	     -7.70162660	     12.01558115	     -1.27918385	     -0.06421837	      0.64009069	     39.76307468	     -0.44710439	    -23.25644587	    -20.98679255	     -7.83425014	     -0.81436394	     -0.24905299	     -7.91454289	     -8.99331902	      2.84205909	    -21.21159379	     11.92799955	     14.61957962	     17.17969729	      4.50106856	      6.35265157	    -16.16680865
      3.71500000	     -9.55046852	     -8.13424034	     11.81126601	     -1.27110115	     -0.06491854	      0.64037169	     40.02763873	      0.05513752	    -22.77263252	    -22.01453359	     -8.36896690	     -1.76802818	     -0.65170192	     -7.54145810	     -9.59240857	      2.30446896	    -22.63109625	     10.83474526	     15.16331294	     18.34958866	      4.71310020	      6.89173926	    -16.00380545
      3.72000000	     -9.58177736	     -8.52761297	     11.50436418	     -1.26300609	     -0.06545665	      0.64078789	     40.26659750	      0.59809997	    -22.27931946	    -23.09043441	     -8.76440409	     -2.66583327	     -1.08691448	     -7.19288242	    -10.16901070	      1.66175784	    -24.09009528	      9.50981067	     15.75591684	     19.85142231	      4.86172939	      7.40913485	    -15.62987325
      3.72500000	     -9.64112707	     -8.93244515	     11.22187117	     -1.25495364	     -0.06592776	      0.64119359	     40.50104001	      1.16482492	    -21.69506414	    -24.11352072	     -8.99582585	     -3.59962466	     -1.39673566	     -6.70533410	    -10.76686999	      1.05819237	    -25.73292773	      8.09012983	     16.32856613	     21.08738342	      5.04196887	      7.92855162	    -15.37176071
      3.73000000	     -9.71884217	     -9.33470681	     10.90608888	     -1.24693965	     -0.06628597	      0.64166314	     40.73081545	      1.75605424	    -21.20152138	    -25.09781532	     -9.17465203	     -4.50748635	     -1.58895262	     -6.12989497	    -11.37360192	      0.46980248	    -27.49491495	      6.53569692	     16.94013261	     22.15263068	      5.22763190	      8.44371847	    -15.01095179
      3.73500000	     -9.75416280	     -9.67816300	     10.53227142	     -1.23894033	     -0.06651332	      0.64223324	     40.86634729	      2.37031388	    -20.63869788	    -26.01995954	     -9.16319716	     -5.27994451	     -1.61617507	     -5.56068550	    -11.95323851	     -0.23287167	    -29.33264749	      4.80605604	     17.53836286	     23.29468733	      5.33867280	      8.90666992	    -14.60408833
      3.74000000	     -9.72612748	     -9.98452121	     10.20040725	     -1.23100528	     -0.06651313	      0.64282972	     40.85703901	      2.98802532	    -20.05563619	    -26.80740723	     -9.07187996	     -6.12826836	     -1.43552872	     -4.99735412	    -12.51510761	     -0.81154448	    -31.18715681	      2.85595129	     17.88448651	     24.76824936	      5.36457852	      9.32521435	    -14.27129555
      3.74500000	     -9.75143216	    -10.29598545	      9.82974604	     -1.22317513	     -0.06650818	      0.64342161	     40.86373071	      3.60155423	    -19.63300745	    -27.52494141	     -8.90526075	     -6.73390875	     -1.07428735	     -4.28125803	    -13.08714775	     -1.41267324	    -33.21601100	      0.95647485	     18.27350755	     25.65807546	      5.42932427	      9.75666824	    -13.84436799
      3.75000000	     -9.77133610	    -10.59026734	      9.46480263	     -1.21537842	     -0.06637982	      0.64410213	     40.78585168	      4.23331192	    -19.18790496	    -28.10758642	     -8.63891784	     -7.28744362	     -0.59596187	     -3.50659257	    -13.66311192	     -1.95681479	    -35.29827351	     -0.98100473	     18.61591197	     26.36741828	      5.47998509	     10.14935815	    -13.46054398
      3.75500000	     -9.78696528	    -10.87581452	      9.10230072	     -1.20766124	     -0.06613943	      0.64478728	     40.63310753	      4.86506089	    -18.80781249	    -28.56618555	     -8.31429691	     -7.76052224	      0.01673934	     -2.66745651	    -14.23493269	     -2.43501901	    -37.43058441	     -2.89982929	     18.81215092	     26.96422278	      5.51521001	     10.53337255	    -13.07185575
      3.76000000	     -9.78713187	    -11.15019232	      8.75911426	     -1.19999947	     -0.06573379	      0.64544340	     40.38252110	      5.48644777	    -18.48814192	    -28.87625949	     -7.97922342	     -8.21281991	      0.87872417	     -1.78638376	    -14.78269664	     -2.79250698	    -39.56578606	     -4.80302397	     18.77665129	     27.51290656	      5.53103734	     10.90183165	    -12.69198348
      3.76500000	     -9.73669783	    -11.41143607	      8.44953512	     -1.19247749	     -0.06523463	      0.64601786	     40.03263991	      6.06646223	    -18.27871017	    -29.15937139	     -7.36587089	     -8.20112302	      1.20803321	     -0.87457713	    -15.31781658	     -3.07615261	    -41.78210911	     -6.47660928	     18.70516749	     27.57417840	      5.47605100	     11.26471319	    -12.33786675
